<svg id="Ebene_1" data-name="Ebene 1" xmlns="http://www.w3.org/2000/svg" xmlns:xlink="http://www.w3.org/1999/xlink" viewBox="0 0 198.017 276.324"><defs><style>.cls-1{fill:url(#Unbenannter_Verlauf_20);}</style><linearGradient id="Unbenannter_Verlauf_20" x1="186.288" y1="214.657" x2="350.007" y2="302.515" gradientUnits="userSpaceOnUse"><stop offset="0" stop-color="#ff9505"/><stop offset="0.269" stop-color="#fb860b"/><stop offset="0.782" stop-color="#f16019"/><stop offset="1" stop-color="#ec4e20"/></linearGradient></defs><path class="cls-1" d="M161.9,254.106a40.782,40.782,0,0,0-3.127,8.473c-4.186,16.93,3.873,31.876,6.28,36.345,10.155,18.857,27.978,28.026,31.15,29.658,6.489,3.338,8.689,4.11,17.194,9.5,8.195,5.189,14.793,9.366,20.734,16.021,3.937,4.41,10.565,13.245,13.984,27.867A109.813,109.813,0,0,0,243.1,338.2c-6.36-19.077-12.944-20.2-17.664-37.412-6.809-24.827,3.555-34.643-4.315-52.894-3.328-7.718-10.557-18.428-28.546-27.738,4.181,5.365,13.273,18.635,12.33,35.522-.3,5.325-.8,14.307-7.585,19.865a18.611,18.611,0,0,1-9.7,4.013C177.912,280.184,167.137,270.021,161.9,254.106ZM309.255,361.019c14.822-12.093,31.524-25.719,40.446-49.756,6.783-18.274,6.081-34.513,5.649-44.517-.45-10.408-1.186-24.325-8.488-40.414a94.57,94.57,0,0,0-25.329-33.216c3.617,8.4,13.946,34.572,7.3,56.9-2.756,9.26-6.588,12.975-9.116,14.741-6.588,4.6-15.951,5.03-21.654,1.729-9.731-5.632-13.411-24.79-2.833-44.589a89.1,89.1,0,0,0-13.13,15.829c-3.639,5.6-14.745,22.941-13.626,44.22,1.006,19.118,10.856,21.232,12.07,44.183a87.885,87.885,0,0,1-2.446,25.312,114.005,114.005,0,0,1-16.453,37.381A179.426,179.426,0,0,0,309.255,361.019Zm-38.51-26.532-24-5.513c-5.576-14.681-11.78-19.912-14.27-36.325-2.293-15.115,3.976-21.756,2.919-45.4-.4-8.977-.634-14.184-2.506-21.237-6-22.6-19.053-27.329-21.494-44.276-.884-6.141-.558-15.159,5.514-26.919,11,22.094,28.057,36.964,40.532,34.521,15.024-2.943,29.214-32.138,20.441-71.17,10.7,12.457,22.729,30.926,21.405,52.541-.567,9.253-5.06,18.04-13.3,35.675-8.426,18.039-11.871,20.34-17.838,36.325,0,0-6.132,16.425-6.557,32.981-.061,2.377.07,4.64.07,4.64,1.029,16.4,6.64,18.094,9.406,34.7,2.882,17.308,1.461,43.519-21.081,79.459C256.27,364.122,252.059,342.96,246.745,328.974ZM322.36,265.54m-123.939-5.647A12.324,12.324,0,1,1,186.1,247.568,12.324,12.324,0,0,1,198.421,259.893Zm71.528-96.474a16.877,16.877,0,1,1-16.877-16.877A16.877,16.877,0,0,1,269.949,163.419Zm51,85.933a12.325,12.325,0,1,1-12.325-12.324A12.325,12.325,0,0,1,320.951,249.352Z" transform="translate(-157.59 -118.163)"/></svg>